HIERARCHY
ROOT Hips
{
 OFFSET 0.000000 0.000000 0.000000
 CHANNELS 6 Xposition Yposition Zposition Yrotation Xrotation Zrotation
 JOINT Chest
 {
  OFFSET 0.000000 9.857222 0.000240
  CHANNELS 3 Yrotation Xrotation Zrotation
  JOINT Chest2
  {
   OFFSET 0.000000 10.876940 -0.000436
   CHANNELS 3 Yrotation Xrotation Zrotation
   JOINT Chest3
   {
    OFFSET 0.000000 9.827798 0.000000
    CHANNELS 3 Yrotation Xrotation Zrotation
    JOINT Chest4
    {
     OFFSET 0.000000 9.827798 0.000000
     CHANNELS 3 Yrotation Xrotation Zrotation
     JOINT Neck
     {
      OFFSET 0.000000 13.831992 0.000000
      CHANNELS 3 Yrotation Xrotation Zrotation
      JOINT Head
      {
       OFFSET 0.000000 9.147643 -0.001036
       CHANNELS 3 Yrotation Xrotation Zrotation
       End Site
       {
        OFFSET 0.000000 17.515799 -0.000541
       }
      }
     }
     JOINT RightCollar
     {
      OFFSET -3.001579 7.717577 0.000000
      CHANNELS 3 Yrotation Xrotation Zrotation
      JOINT RightShoulder
      {
       OFFSET -14.002642 0.000000 0.000000
       CHANNELS 3 Yrotation Xrotation Zrotation
       JOINT RightElbow
       {
        OFFSET -30.053852 0.000000 0.000000
        CHANNELS 3 Yrotation Xrotation Zrotation
        JOINT RightWrist
        {
         OFFSET -24.564923 0.000000 -0.000000
         CHANNELS 3 Yrotation Xrotation Zrotation
         End Site
         {
          OFFSET -18.334355 0.000000 0.000000
         }
        }
       }
      }
     }
     JOINT LeftCollar
     {
      OFFSET 3.001579 7.717577 0.000000
      CHANNELS 3 Yrotation Xrotation Zrotation
      JOINT LeftShoulder
      {
       OFFSET 14.002642 0.000000 0.000000
       CHANNELS 3 Yrotation Xrotation Zrotation
       JOINT LeftElbow
       {
        OFFSET 30.053852 0.000000 0.000000
        CHANNELS 3 Yrotation Xrotation Zrotation
        JOINT LeftWrist
        {
         OFFSET 24.564923 0.000000 -0.000000
         CHANNELS 3 Yrotation Xrotation Zrotation
         End Site
         {
          OFFSET 18.334355 0.000000 0.000000
         }
        }
       }
      }
     }
    }
   }
  }
 }
 JOINT RightHip
 {
  OFFSET -8.003235 -0.001175 -0.000120
  CHANNELS 3 Yrotation Xrotation Zrotation
  JOINT RightKnee
  {
   OFFSET 0.000000 -41.759727 0.000113
   CHANNELS 3 Yrotation Xrotation Zrotation
   JOINT RightAnkle
   {
    OFFSET 0.000000 -40.728748 0.000159
    CHANNELS 3 Yrotation Xrotation Zrotation
    JOINT RightToe
    {
     OFFSET 0.000000 -6.515296 14.732841
     CHANNELS 3 Yrotation Xrotation Zrotation
     End Site
     {
      OFFSET 0.000000 -1.502839 6.412115
     }
    }
   }
  }
 }
 JOINT LeftHip
 {
  OFFSET 8.003235 -0.001175 -0.000120
  CHANNELS 3 Yrotation Xrotation Zrotation
  JOINT LeftKnee
  {
   OFFSET 0.000000 -41.759727 0.000113
   CHANNELS 3 Yrotation Xrotation Zrotation
   JOINT LeftAnkle
   {
    OFFSET 0.000000 -40.728748 0.000159
    CHANNELS 3 Yrotation Xrotation Zrotation
    JOINT LeftToe
    {
     OFFSET 0.000000 -6.515296 14.732841
     CHANNELS 3 Yrotation Xrotation Zrotation
     End Site
     {
      OFFSET 0.000000 -1.502839 6.412115
     }
    }
   }
  }
 }
}
MOTION
Frames: 14
Frame Time: 0.016667
0.000000 88.822259 0.000000 0.000000 -5.826342 0.000000 0.000000 11.116423 0.000000 0.000000 -5.290081 0.000000 0.000000 0.000000 0.000000 0.000000 0.000000 0.000000 0.000000 12.665069 0.000000 0.000000 0.575450 0.000000 0.000000 0.000000 0.000000 0.000000 0.000000 0.000000 2.337306 0.000000 0.000000 -2.337306 0.000000 0.000000 0.000000 0.000000 0.000000 0.000000 0.000000 0.000000 -2.337306 0.000000 0.000000 2.337306 0.000000 0.000000 0.000000 8.578828 0.000000 0.000000 1.905768 0.000000 0.000000 -4.658254 0.000000 0.000000 0.000000 0.000000 0.000000 8.578828 0.000000 0.000000 1.905768 0.000000 0.000000 -4.658254 0.000000 0.000000 0.000000 0.000000
2.479682 90.317768 20.331351 -30.869169 -15.985213 0.576920 0.933181 3.360368 0.352522 0.514640 1.586742 0.119988 0.514640 1.586742 0.119988 0.385644 1.190159 0.088649 5.913943 24.229657 -0.774075 10.804053 9.063574 -2.857560 7.796565 17.600791 11.803074 26.002499 8.711865 81.349400 36.456283 -6.012877 1.040546 0.134406 -2.988536 -13.376257 -16.373887 21.155278 -19.943288 -34.532475 27.758539 -78.889657 -50.469624 0.154886 4.225633 7.922498 -1.250833 13.863589 -10.238780 20.429643 -7.298753 5.860089 -0.203332 1.461664 1.272726 -4.345058 1.477292 -0.043144 0.104119 -0.012468 -5.454650 27.770410 1.038364 7.081788 -4.265923 -5.669949 1.013647 -7.137863 0.957318 0.369212 0.046294 0.148800
2.470049 90.315555 20.347466 -30.836579 -15.931102 0.574966 0.936738 3.314249 0.348705 0.516997 1.569089 0.121176 0.516997 1.569089 0.121176 0.387412 1.176920 0.089549 5.867263 24.266983 -0.771714 10.718168 9.129130 -2.839010 7.783333 17.605434 11.772887 25.984888 8.753419 81.400048 36.456125 -6.186419 0.945864 0.121149 -2.996335 -13.384811 -16.346665 21.118526 -19.908288 -34.560031 27.776674 -79.041085 -50.485504 0.256317 4.354314 7.903055 -1.270377 13.875381 -10.266748 20.395704 -7.300270 5.866211 -0.215073 1.461862 1.279821 -4.348213 1.479910 -0.041730 0.097739 -0.014852 -5.450270 27.731056 1.042501 7.061712 -4.279623 -5.655296 0.997829 -7.137526 0.956939 0.364103 0.044667 0.146372
2.459246 90.313277 20.361409 -30.807823 -15.866878 0.570293 0.938029 3.264362 0.346145 0.517997 1.548650 0.122878 0.517997 1.548650 0.122878 0.388163 1.161593 0.090840 5.818911 24.304927 -0.769759 10.629388 9.195780 -2.820775 7.780615 17.604977 11.745331 25.978845 8.795907 81.457090 36.461014 -6.384956 0.863648 0.114489 -3.010845 -13.387950 -16.323018 21.101574 -19.880197 -34.559434 27.775963 -79.175645 -50.516793 0.338590 4.479143 7.892849 -1.324207 13.880740 -10.300185 20.351669 -7.299452 5.879242 -0.226827 1.464030 1.290853 -4.353498 1.479458 -0.040549 0.093162 -0.016089 -5.463945 27.679416 1.045926 7.048204 -4.290436 -5.645991 1.016077 -7.139599 0.955893 0.357630 0.044331 0.143802
2.449307 90.309676 20.373499 -30.783060 -15.793751 0.563062 0.938384 3.212343 0.343974 0.521072 1.528060 0.124074 0.521072 1.528060 0.124074 0.390471 1.146152 0.091747 5.768175 24.336277 -0.764575 10.535827 9.249780 -2.796740 7.772963 17.610533 11.720817 25.976043 8.836172 81.502235 36.489000 -6.602012 0.810438 0.110713 -3.028508 -13.390884 -16.301401 21.094240 -19.855034 -34.528192 27.772829 -79.271298 -50.588488 0.313738 4.577786 7.883550 -1.343757 13.904270 -10.334486 20.295566 -7.292602 5.899351 -0.235702 1.467058 1.278459 -4.364972 1.477892 -0.040996 0.096244 -0.017347 -5.476493 27.618982 1.059808 7.020108 -4.301668 -5.647775 1.045358 -7.144334 0.957101 0.355858 0.046481 0.144556
2.442292 90.305839 20.382921 -30.756306 -15.723483 0.561415 0.935656 3.166261 0.333492 0.525841 1.512817 0.123217 0.525841 1.512817 0.123217 0.394053 1.134720 0.091106 5.717916 24.355967 -0.755920 10.442760 9.281932 -2.767545 7.757491 17.613395 11.696683 25.979653 8.868705 81.541445 36.535271 -6.842464 0.764472 0.115149 -3.040741 -13.382298 -16.265291 21.054497 -19.811452 -34.490850 27.785023 -79.351529 -50.677399 0.225215 4.642982 7.864016 -1.361401 13.927566 -10.362282 20.237630 -7.289763 5.908567 -0.238527 1.467596 1.269983 -4.381953 1.479085 -0.041131 0.103603 -0.017686 -5.523095 27.552939 1.053403 7.009743 -4.305675 -5.648976 1.077641 -7.149049 0.959216 0.351565 0.048930 0.145188
2.435335 90.302661 20.392205 -30.737018 -15.666136 0.559336 0.939136 3.138115 0.322919 0.530091 1.501875 0.121123 0.530091 1.501875 0.121123 0.397248 1.126512 0.089534 5.672330 24.361881 -0.745544 10.358212 9.288769 -2.737473 7.743401 17.621595 11.672329 25.966377 8.864148 81.580212 36.574717 -7.046560 0.751328 0.119438 -3.061500 -13.378665 -16.229842 21.015141 -19.768673 -34.421882 27.787674 -79.404416 -50.784658 0.148736 4.663989 7.852165 -1.416845 13.933852 -10.381408 20.190754 -7.285512 5.921273 -0.239157 1.465935 1.274141 -4.398111 1.479934 -0.040717 0.109938 -0.017416 -5.565218 27.495756 1.048451 7.000549 -4.297193 -5.654301 1.112484 -7.161114 0.965152 0.343531 0.050707 0.144248
2.430280 90.299034 20.400163 -30.723452 -15.621005 0.558637 0.942383 3.122755 0.311900 0.534815 1.496830 0.118352 0.534815 1.496830 0.118352 0.400798 1.122727 0.087449 5.633377 24.354745 -0.734546 10.285926 9.271864 -2.708889 7.739406 17.645963 11.651593 25.939472 8.809430 81.611612 36.593755 -7.228023 0.762198 0.126568 -3.064480 -13.360651 -16.204870 20.997580 -19.737214 -34.328741 27.769426 -79.420557 -50.923055 0.019136 4.639954 7.861818 -1.442559 13.928005 -10.394529 20.154566 -7.282211 5.925396 -0.239484 1.463440 1.287108 -4.415188 1.479793 -0.040553 0.118836 -0.016224 -5.597983 27.450647 1.045347 7.011806 -4.289157 -5.660845 1.111266 -7.170831 0.968183 0.338624 0.053677 0.145470
2.425021 90.296637 20.406319 -30.714980 -15.612076 0.553642 0.948587 3.130902 0.304360 0.538923 1.501323 0.114928 0.538923 1.501323 0.114928 0.403887 1.126094 0.084867 5.602815 24.337341 -0.723488 10.229072 9.236528 -2.682996 7.752610 17.713834 11.655511 25.955885 8.732923 81.629995 36.622476 -7.407297 0.809085 0.145332 -3.056911 -13.372881 -16.196405 21.005543 -19.713629 -34.267775 27.740878 -79.418291 -51.059165 -0.173040 4.619142 7.886932 -1.423443 13.894955 -10.374783 20.151910 -7.267920 5.906061 -0.230167 1.462164 1.286624 -4.430244 1.476658 -0.040597 0.123000 -0.014365 -5.633557 27.437515 1.041859 7.023549 -4.271208 -5.665848 1.121021 -7.185060 0.966111 0.341688 0.055714 0.149036
2.424692 90.295143 20.407168 -30.688357 -15.601159 0.551609 0.933781 3.128590 0.288816 0.542871 1.511866 0.112404 0.542871 1.511866 0.112404 0.406851 1.134001 0.082955 5.581725 24.317659 -0.713463 10.189540 9.197727 -2.661408 7.789167 17.798668 11.672844 26.015873 8.646787 81.641851 36.632387 -7.506463 0.832831 0.170126 -3.070472 -13.334800 -16.204148 21.030532 -19.701159 -34.274249 27.704523 -79.412646 -51.137453 -0.349892 4.595904 7.910457 -1.407474 13.852208 -10.354836 20.141600 -7.255449 5.863664 -0.213661 1.463024 1.285670 -4.449357 1.471603 -0.040239 0.130585 -0.011346 -5.719736 27.418508 1.017421 7.067318 -4.248989 -5.670694 1.105522 -7.211597 0.957647 0.362708 0.070587 0.159882
2.417665 90.297299 20.412212 -30.722834 -15.662368 0.542132 0.973839 3.195437 0.300198 0.545872 1.526968 0.110673 0.545872 1.526968 0.110673 0.409103 1.145326 0.081635 5.568527 24.296932 -0.704527 10.164467 9.157630 -2.643756 7.836653 17.899324 11.694664 26.032783 8.516177 81.611290 36.602421 -7.479572 0.924119 0.188468 -3.083524 -13.268523 -16.211959 21.045617 -19.695995 -34.342859 27.657398 -79.406546 -51.130325 -0.489916 4.538947 7.931062 -1.404193 13.819948 -10.269805 20.204598 -7.226548 5.826695 -0.196445 1.458577 1.290015 -4.445193 1.464552 -0.040234 0.116669 -0.007027 -5.753591 27.470050 1.001653 7.091987 -4.220481 -5.663414 1.142049 -7.210584 0.955897 0.345672 0.052792 0.154562
2.415986 90.298025 20.410175 -30.726869 -15.698001 0.534691 0.986100 3.237924 0.304124 0.549980 1.544690 0.110947 0.549980 1.544690 0.110947 0.412180 1.158619 0.081815 5.554500 24.277424 -0.697206 10.138255 9.119883 -2.628691 7.896668 18.032400 11.725724 26.013656 8.325155 81.516657 36.552257 -7.470795 1.098183 0.217105 -3.080306 -13.237423 -16.226546 21.068584 -19.699120 -34.453046 27.572208 -79.376092 -51.054148 -0.614218 4.437669 7.959324 -1.412999 13.809719 -10.213683 20.241805 -7.198022 5.786299 -0.185564 1.446158 1.288261 -4.445888 1.462324 -0.040370 0.113326 -0.004264 -5.826187 27.493151 0.979094 7.118380 -4.196210 -5.661911 1.157826 -7.220560 0.947626 0.351846 0.052699 0.160175
2.416943 90.298240 20.405887 -30.736215 -15.745842 0.529053 0.998033 3.288212 0.306521 0.554125 1.564930 0.113374 0.554125 1.564930 0.113374 0.415277 1.173801 0.083606 5.535971 24.263838 -0.690896 10.103980 9.092902 -2.613888 7.959240 18.194403 11.755815 26.047182 8.086024 81.388529 36.479676 -7.516049 1.272865 0.274493 -3.095568 -13.203487 -16.251800 21.117943 -19.719192 -34.617269 27.449204 -79.316538 -50.936594 -0.839924 4.330578 8.007552 -1.391536 13.808113 -10.186881 20.288728 -7.181935 5.759866 -0.182120 1.428218 1.299325 -4.443559 1.465722 -0.040488 0.113495 -0.003247 -5.899577 27.522872 0.950951 7.155392 -4.164076 -5.662890 1.177429 -7.235096 0.946791 0.345747 0.055106 0.160345
2.420712 90.298193 20.398885 -30.742141 -15.802013 0.523494 1.009858 3.346278 0.308865 0.559597 1.589864 0.114894 0.559597 1.589864 0.114894 0.419372 1.192504 0.084709 5.506343 24.253635 -0.681712 10.048947 9.071200 -2.590970 8.037485 18.350057 11.792333 26.104891 7.769476 81.241198 36.331406 -7.599183 1.426206 0.345491 -3.132637 -13.123389 -16.302555 21.173111 -19.759871 -34.827384 27.322782 -79.225608 -50.801339 -1.173864 4.231986 8.053534 -1.390500 13.811061 -10.192311 20.341526 -7.175955 5.728924 -0.184254 1.412421 1.303501 -4.437472 1.468867 -0.041157 0.116553 -0.003191 -5.978343 27.558608 0.912618 7.187942 -4.135300 -5.652289 1.223106 -7.247026 0.937189 0.346156 0.058775 0.162713
